<svg preserveAspectRatio="none" overflow="visible" style="display: block;" width="20" height="20" viewBox="0 0 20 20" fill="none" xmlns="http://www.w3.org/2000/svg">
<g id="calendar-clock">
<path id="Vector" d="M13.3338 11.6668V13.5003L14.6672 14.3337M13.3338 1.666V4.9996M17.5006 6.2497V4.9996C17.5006 4.55754 17.325 4.13358 17.0125 3.82099C16.6999 3.50841 16.2759 3.3328 15.8339 3.3328H4.16674C3.72469 3.3328 3.30075 3.50841 2.98818 3.82099C2.6756 4.13358 2.5 4.55754 2.5 4.9996V16.6672C2.5 17.1093 2.6756 17.5332 2.98818 17.8458C3.30075 18.1584 3.72469 18.334 4.16674 18.334H7.08353M2.5 8.3332H6.66684M6.66684 1.666V4.9996M18.334 13.3336C18.334 16.0952 16.0953 18.334 13.3338 18.334C10.5722 18.334 8.33358 16.0952 8.33358 13.3336C8.33358 10.572 10.5722 8.3332 13.3338 8.3332C16.0953 8.3332 18.334 10.572 18.334 13.3336Z" stroke="white" stroke-width="2" stroke-linecap="round"/>
</g>
</svg>
